# xmcd
#
# Track frame offsets:
#	150
#	4559
#	14939
#	28297
#	41949
#	53167
#	68873
#	81642
#	93888
#	113658
#	133097
#	144146
#	157413
#	171100
#	189561
#	203777
#
# Disc length: 2978 seconds
#
# Revision: 0
# Processed by: cddbd v1.5.1PL2 Copyright (c) Steve Scherf et al.
# Submitted via: dBpowerAMP V4.0
#
DISCID=e70ba010
DTITLE=Casper - Die Welt Hört Mich
DYEAR=2006
DGENRE=Rap
TTITLE0=Intro
TTITLE1=Wieder Zurück
TTITLE2=Caspers Stadt
TTITLE3=Klatschtüte
TTITLE4=Lippenlesen
TTITLE5=Druck
TTITLE6=Letz Fetz
TTITLE7=Die Hütte Brennt (feat. Lump)
TTITLE8=Abriss (feat. Pimpulsiv)
TTITLE9=Propeller
TTITLE10=Zauber Pur (feat. Lump)
TTITLE11=Immer Fly (feat. Kollegah)
TTITLE12=Die Welt Hört Mich
TTITLE13=Kippenpause
TTITLE14=Blute Mich Durch
TTITLE15=Rasierklingenliebe
EXTD=
EXTT0=
EXTT1=
EXTT2=
EXTT3=
EXTT4=
EXTT5=
EXTT6=
EXTT7=
EXTT8=
EXTT9=
EXTT10=
EXTT11=
EXTT12=
EXTT13=
EXTT14=
EXTT15=
PLAYORDER=
